<svg xmlns="http://www.w3.org/2000/svg" xmlns:xlink="http://www.w3.org/1999/xlink" width="0" height="0" style="position:absolute">
	
		<symbol id="arrow-right" viewBox="0 0 80 64.6">
			<path class="st0" d="M4 36.3h62.3L44.9 57.7c-1.6 1.6-1.6 4.1 0 5.7 1.6 1.6 4.1 1.6 5.7 0l28.3-28.3c.2-.2.4-.4.5-.6.1-.1.1-.2.2-.3.1-.1.1-.2.2-.4.1-.1.1-.3.1-.4 0-.1.1-.2.1-.3.1-.3.1-.5.1-.8 0-.3 0-.5-.1-.8 0-.1-.1-.2-.1-.3 0-.1-.1-.3-.1-.4-.1-.1-.1-.3-.2-.4-.1-.1-.1-.2-.2-.3-.1-.2-.3-.4-.5-.6L50.5 1.2c-1.6-1.6-4.1-1.6-5.7 0-1.6 1.6-1.6 4.1 0 5.7l21.5 21.5H4c-2.2 0-4 1.8-4 4s1.8 3.9 4 3.9z"></path>
		</symbol>
	
		<symbol id="bar-chart" viewBox="0 0 32 32">
			<path class="st0" d="M31 32H21c-.6 0-1-.4-1-1V1c0-.6.4-1 1-1h10c.6 0 1 .4 1 1v30c0 .6-.4 1-1 1zm-9-2h8V2h-8v28z"></path><path class="st0" d="M21 32H11c-.6 0-1-.4-1-1V9c0-.6.4-1 1-1h10c.6 0 1 .4 1 1v22c0 .6-.4 1-1 1zm-9-2h8V10h-8v20z"></path><path class="st0" d="M11 32H1c-.6 0-1-.4-1-1V17c0-.6.4-1 1-1h10c.6 0 1 .4 1 1v14c0 .6-.4 1-1 1zm-9-2h8V18H2v12z"></path>
		</symbol>
	
		<symbol id="cart" viewBox="0 0 402 398.9">
			<path class="st0" d="M359 246.5H96.3c-7.6 0-14-5.7-14.9-13.2L61.9 68.4V68l-4.5-38H15C6.7 30 0 23.3 0 15S6.7 0 15 0h55.6c7.6 0 14 5.7 14.9 13.2L90 51.5h297c8.3 0 15 6.7 15 15 0 .8-.1 1.7-.2 2.5l-28 165.1c-1.2 7.2-7.5 12.5-14.8 12.4zm-249.3-30h236.7l22.9-135.1H93.6l16.1 135.1z"></path><path class="st0" d="M356.5 300.1H102.7c-7.6 0-14-5.7-14.9-13.2L71.2 147.2c-1-8.2 4.8-15.7 13-16.7s15.7 4.8 16.7 13v.2l15 126.5h240.5c8.3 0 15 6.7 15 15s-6.6 14.9-14.9 14.9zM137.3 398.9c-24.6 0-44.5-19.9-44.5-44.5s19.9-44.5 44.5-44.5 44.5 19.9 44.5 44.5c-.1 24.6-20 44.5-44.5 44.5zm0-59c-8 0-14.5 6.5-14.5 14.5s6.5 14.5 14.5 14.5 14.5-6.5 14.5-14.5c-.1-8-6.5-14.4-14.5-14.5zM316 398.9c-24.6 0-44.5-19.9-44.5-44.5s19.9-44.5 44.5-44.5 44.5 19.9 44.5 44.5-19.9 44.5-44.5 44.5zm0-59c-8 0-14.5 6.5-14.5 14.5s6.5 14.5 14.5 14.5 14.5-6.5 14.5-14.5S324 340 316 339.9z"></path>
		</symbol>
	
		<symbol id="check" viewBox="0 0 24 18.5">
			<path class="st0" d="M7.5 18.5c-.5 0-1-.2-1.4-.6L.6 12.4c-.8-.8-.8-2 0-2.8s2-.8 2.8 0l4.1 4.1L20.6.6c.8-.8 2-.8 2.8 0s.8 2 0 2.8L8.9 17.9c-.4.4-.9.6-1.4.6z"></path>
		</symbol>
	
		<symbol id="close" viewBox="0 0 35.4 35.4">
			<g transform="translate(14 14)"><path class="st0" d="M-13.3-13.3c1-1 2.6-1 3.5 0l30.4 30.4c1 1 1 2.6 0 3.5s-2.6 1-3.5 0L-13.3-9.7c-.9-1-.9-2.6 0-3.6z"></path><path class="st0" d="M-13.3 20.7c1 1 2.6 1 3.5 0L20.7-9.7c1-1 1-2.6 0-3.5s-2.6-1-3.5 0l-30.4 30.4c-1 .9-1 2.5-.1 3.5z"></path></g>
		</symbol>
	
		<symbol id="filter" viewBox="0 0 24 20">
			<path class="st0" d="M4 20c-.6 0-1-.4-1-1v-7c0-.6.4-1 1-1s1 .4 1 1v7c0 .6-.4 1-1 1zM4 9c-.6 0-1-.4-1-1V1c0-.6.4-1 1-1s1 .4 1 1v7c0 .6-.4 1-1 1zM12 20c-.6 0-1-.4-1-1v-9c0-.6.4-1 1-1s1 .4 1 1v9c0 .6-.4 1-1 1zM12 7c-.6 0-1-.4-1-1V1c0-.6.4-1 1-1s1 .4 1 1v5c0 .6-.4 1-1 1zM20 20c-.6 0-1-.4-1-1v-5c0-.6.4-1 1-1s1 .4 1 1v5c0 .6-.4 1-1 1zM20 11c-.6 0-1-.4-1-1V1c0-.6.4-1 1-1s1 .4 1 1v9c0 .6-.4 1-1 1z"></path><path class="st0" d="M7 13H1c-.6 0-1-.4-1-1s.4-1 1-1h6c.6 0 1 .4 1 1s-.4 1-1 1zM15 7H9c-.6 0-1-.4-1-1s.4-1 1-1h6c.6 0 1 .4 1 1s-.4 1-1 1zM23 15h-6c-.6 0-1-.4-1-1s.4-1 1-1h6c.6 0 1 .4 1 1s-.4 1-1 1z"></path>
		</symbol>
	
		<symbol id="home" viewBox="0 0 20 22">
			<path class="st0" d="M17 22H3c-1.7 0-3-1.3-3-3V8c0-.3.1-.6.4-.8l9-7c.4-.3.9-.3 1.2 0l9 7c.3.2.4.5.4.8v11c0 1.7-1.3 3-3 3zM2 8.5V19c0 .6.4 1 1 1h14c.6 0 1-.4 1-1V8.5l-8-6.2-8 6.2z"></path><path class="st0" d="M13 22c-.6 0-1-.4-1-1v-9H8v9c0 .6-.4 1-1 1s-1-.4-1-1V11c0-.6.4-1 1-1h6c.6 0 1 .4 1 1v10c0 .6-.4 1-1 1z"></path>
		</symbol>
	
		<symbol id="key" viewBox="0 0 27 27">
			<path class="st0" d="M15.5 16.5L11 21H8v3H5v3H0v-5l10.5-10.5c-.3-.9-.5-1.9-.5-3C10 3.8 13.8 0 18.5 0S27 3.8 27 8.5 23.2 17 18.5 17c-1 0-2-.2-3-.5zm-4.5-4l-10 10V26h3v-3h3v-3h3.5l4-4c-1.5-.8-2.7-2-3.5-3.5zm15-4C26 4.4 22.6 1 18.5 1S11 4.4 11 8.5s3.4 7.5 7.5 7.5S26 12.6 26 8.5zM24 6c0-1.7-1.3-3-3-3s-3 1.3-3 3 1.3 3 3 3 3-1.3 3-3zm-1 0c0-1.1-.9-2-2-2s-2 .9-2 2 .9 2 2 2 2-.9 2-2z"></path>
		</symbol>
	
		<symbol id="location" viewBox="0 0 20 24">
			<path class="st0" d="M10 24c-.2 0-.4-.1-.6-.2C9.1 23.6 0 17.4 0 10 0 4.5 4.5 0 10 0s10 4.5 10 10c0 7.4-9.1 13.6-9.4 13.8-.2.1-.4.2-.6.2zm0-22c-4.4 0-8 3.6-8 8 0 5.4 6.1 10.4 8 11.8 1.9-1.4 8-6.4 8-11.8 0-4.4-3.6-8-8-8z"></path><path class="st0" d="M10 14c-2.2 0-4-1.8-4-4s1.8-4 4-4 4 1.8 4 4-1.8 4-4 4zm0-6c-1.1 0-2 .9-2 2s.9 2 2 2 2-.9 2-2-.9-2-2-2z"></path>
		</symbol>
	
		<symbol id="loupe" viewBox="0 0 28 28">
			<path class="st0" d="M12.5 25C5.6 25 0 19.4 0 12.5S5.6 0 12.5 0 25 5.6 25 12.5 19.4 25 12.5 25zm0-23C6.7 2 2 6.7 2 12.5S6.7 23 12.5 23 23 18.3 23 12.5 18.3 2 12.5 2z"></path><path class="st0" d="M27 28c-.3 0-.5-.1-.7-.3l-6-6c-.4-.4-.4-1 0-1.4s1-.4 1.4 0l6 6c.4.4.4 1 0 1.4-.2.2-.4.3-.7.3z"></path>
		</symbol>
	
		<symbol id="paperclip" viewBox="0 0 40.5 37">
			<path class="st0" d="M13 37c-3.5 0-6.7-1.4-9.2-3.8-5.1-5.1-5.1-13.3 0-18.4L18.7 0l2.8 2.8L6.6 17.7c-3.5 3.5-3.5 9.2 0 12.7 1.7 1.7 4 2.6 6.4 2.6s4.7-.9 6.4-2.6l15.5-15.5c1-1 1.6-2.4 1.6-3.9s-.6-2.9-1.6-3.9c-2.1-2.1-5.6-2.1-7.8 0L12.3 21.9c-.4.4-.6.9-.6 1.4s.2 1 .6 1.4c.8.8 2.1.8 2.9 0L30 9.9l2.8 2.8L18 27.6c-2.3 2.3-6.2 2.3-8.5 0-1.1-1.1-1.8-2.7-1.8-4.3s.6-3.1 1.8-4.3L24.3 4.2C28 .5 34 .5 37.8 4.2c1.8 1.8 2.8 4.2 2.8 6.7s-1 4.9-2.8 6.7L22.2 33.2C19.7 35.7 16.5 37 13 37z"></path>
		</symbol>
	
		<symbol id="trash" viewBox="0 0 28 28">
			<path class="st0" d="M23 28H5c-.6 0-1-.4-1-1V5c0-.6.4-1 1-1h18c.6 0 1 .4 1 1v22c0 .6-.4 1-1 1zM6 26h16V6H6v20z"></path><path class="st0" d="M27 6H1c-.6 0-1-.4-1-1s.4-1 1-1h26c.6 0 1 .4 1 1s-.4 1-1 1zM17 2h-6c-.6 0-1-.4-1-1s.4-1 1-1h6c.6 0 1 .4 1 1s-.4 1-1 1zM11 21c-.6 0-1-.4-1-1V10c0-.6.4-1 1-1s1 .4 1 1v10c0 .6-.4 1-1 1zM17 21c-.6 0-1-.4-1-1V10c0-.6.4-1 1-1s1 .4 1 1v10c0 .6-.4 1-1 1z"></path>
		</symbol>
	
		<symbol id="video" viewBox="0 0 24 16">
			<path class="st0" d="M23 14c-.2 0-.4-.1-.6-.2l-7-5c-.2-.2-.4-.5-.4-.8s.2-.6.4-.8l7-5c.3-.2.7-.2 1-.1.4.2.6.5.6.9v10c0 .4-.2.7-.5.9-.2.1-.3.1-.5.1zm-5.3-6l4.3 3.1V4.9L17.7 8z"></path><path class="st0" d="M14 16H3c-1.7 0-3-1.3-3-3V3c0-1.7 1.3-3 3-3h11c1.7 0 3 1.3 3 3v10c0 1.7-1.3 3-3 3zM3 2c-.6 0-1 .4-1 1v10c0 .6.4 1 1 1h11c.6 0 1-.4 1-1V3c0-.6-.4-1-1-1H3z"></path>
		</symbol>
	
		<symbol id="zap" viewBox="0 0 20 22">
			<path class="st0" d="M9 22c-.1 0-.3 0-.4-.1-.4-.2-.6-.6-.6-1l.9-6.9H1c-.4 0-.7-.2-.9-.6-.2-.4-.1-.8.1-1.1l10-12c.3-.3.8-.4 1.2-.2.4.2.6.6.6 1L11.1 8H19c.4 0 .7.2.9.6.2.4.1.8-.1 1.1l-10 12c-.2.2-.5.3-.8.3zM3.1 12H10c.3 0 .6.1.7.3.2.2.3.5.2.8l-.6 4.6 6.4-7.7H10c-.3 0-.6-.1-.7-.3-.2-.3-.3-.5-.3-.8l.6-4.6L3.1 12z"></path>
		</symbol>
	
		<symbol id="zoom" viewBox="0 0 30 26">
			<path class="st0" d="M12 24C5.4 24 0 18.6 0 12S5.4 0 12 0s12 5.4 12 12-5.4 12-12 12zm0-22C6.5 2 2 6.5 2 12s4.5 10 10 10 10-4.5 10-10S17.5 2 12 2z"></path><path class="st0" d="M29 26c-.2 0-.4-.1-.6-.2l-8-6c-.4-.3-.5-1-.2-1.4.3-.4 1-.5 1.4-.2l8 6c.4.3.5 1 .2 1.4-.2.3-.5.4-.8.4zM8 11h8v2H8z"></path><path class="st0" d="M11 8h2v8h-2z"></path>
		</symbol>
	
</svg>
