<?xml version="1.0" encoding="utf-8"?>
<!-- Generator: Adobe Illustrator 21.0.0, SVG Export Plug-In . SVG Version: 6.00 Build 0)  -->
<svg version="1.1" id="Слой_1" xmlns="http://www.w3.org/2000/svg" xmlns:xlink="http://www.w3.org/1999/xlink" x="0px" y="0px"
	 viewBox="0 0 402 398.9" style="enable-background:new 0 0 402 398.9;" xml:space="preserve">
<style type="text/css">
	.st0{fill:none;}
</style>
<title></title>
<g id="_1">
	<path class="st0" d="M359,246.5H96.3c-7.6,0-14-5.7-14.9-13.2L61.9,68.4c0-0.1,0-0.3,0-0.4l-4.5-38H15C6.7,30,0,23.3,0,15
		S6.7,0,15,0l0,0h55.6c7.6,0,14,5.7,14.9,13.2L90,51.5h297c8.3,0,15,6.7,15,15c0,0.8-0.1,1.7-0.2,2.5l-28,165.1
		C372.6,241.3,366.3,246.6,359,246.5z M109.7,216.5h236.7l22.9-135.1H93.6L109.7,216.5z"/>
	<path class="st0" d="M356.5,300.1H102.7c-7.6,0-14-5.7-14.9-13.2L71.2,147.2c-1-8.2,4.8-15.7,13-16.7c8.2-1,15.7,4.8,16.7,13
		c0,0.1,0,0.1,0,0.2l15,126.5h240.5c8.3,0,15,6.7,15,15S364.8,300.1,356.5,300.1z"/>
	<path class="st0" d="M137.3,398.9c-24.6,0-44.5-19.9-44.5-44.5c0-24.6,19.9-44.5,44.5-44.5s44.5,19.9,44.5,44.5c0,0,0,0,0,0
		C181.7,379,161.8,398.9,137.3,398.9z M137.3,339.9c-8,0-14.5,6.5-14.5,14.5c0,8,6.5,14.5,14.5,14.5c8,0,14.5-6.5,14.5-14.5
		c0,0,0,0,0,0C151.7,346.4,145.3,340,137.3,339.9L137.3,339.9z"/>
	<path class="st0" d="M316,398.9c-24.6,0-44.5-19.9-44.5-44.5c0-24.6,19.9-44.5,44.5-44.5c24.6,0,44.5,19.9,44.5,44.5c0,0,0,0,0,0
		C360.5,379,340.6,398.9,316,398.9z M316,339.9c-8,0-14.5,6.5-14.5,14.5c0,8,6.5,14.5,14.5,14.5c8,0,14.5-6.5,14.5-14.5c0,0,0,0,0,0
		C330.5,346.4,324,340,316,339.9L316,339.9z"/>
</g>
</svg>
