<?xml version="1.0" encoding="utf-8"?>
<!-- Generator: Adobe Illustrator 21.0.0, SVG Export Plug-In . SVG Version: 6.00 Build 0)  -->
<svg version="1.1" id="Слой_1" xmlns="http://www.w3.org/2000/svg" xmlns:xlink="http://www.w3.org/1999/xlink" x="0px" y="0px"
	 viewBox="0 0 35.4 35.4" style="enable-background:new 0 0 35.4 35.4;" xml:space="preserve">
<style type="text/css">
	.st0{fill:none;}
</style>
<title></title>
<desc></desc>
<g id="Cancel">
	<g id="Group" transform="translate(14.000000, 14.000000)">
		<path id="Rectangle" class="st0" d="M-13.3-13.3c1-1,2.6-1,3.5,0l30.4,30.4c1,1,1,2.6,0,3.5s-2.6,1-3.5,0L-13.3-9.7
			C-14.2-10.7-14.2-12.3-13.3-13.3z"/>
		<path id="Rectangle_1_" class="st0" d="M-13.3,20.7c1,1,2.6,1,3.5,0L20.7-9.7c1-1,1-2.6,0-3.5s-2.6-1-3.5,0l-30.4,30.4
			C-14.2,18.1-14.2,19.7-13.3,20.7z"/>
	</g>
</g>
</svg>
