<?xml version="1.0" encoding="utf-8"?>
<!-- Generator: Adobe Illustrator 21.0.0, SVG Export Plug-In . SVG Version: 6.00 Build 0)  -->
<svg version="1.1" id="Слой_1" xmlns="http://www.w3.org/2000/svg" xmlns:xlink="http://www.w3.org/1999/xlink" x="0px" y="0px"
	 viewBox="0 0 24 20" style="enable-background:new 0 0 24 20;" xml:space="preserve">
<style type="text/css">
	.st0{fill:none;}
</style>
<g>
	<path class="st0" d="M4,20c-0.6,0-1-0.4-1-1v-7c0-0.6,0.4-1,1-1s1,0.4,1,1v7C5,19.6,4.6,20,4,20z"/>
</g>
<g>
	<path class="st0" d="M4,9C3.4,9,3,8.6,3,8V1c0-0.6,0.4-1,1-1s1,0.4,1,1v7C5,8.6,4.6,9,4,9z"/>
</g>
<g>
	<path class="st0" d="M12,20c-0.6,0-1-0.4-1-1v-9c0-0.6,0.4-1,1-1s1,0.4,1,1v9C13,19.6,12.6,20,12,20z"/>
</g>
<g>
	<path class="st0" d="M12,7c-0.6,0-1-0.4-1-1V1c0-0.6,0.4-1,1-1s1,0.4,1,1v5C13,6.6,12.6,7,12,7z"/>
</g>
<g>
	<path class="st0" d="M20,20c-0.6,0-1-0.4-1-1v-5c0-0.6,0.4-1,1-1s1,0.4,1,1v5C21,19.6,20.6,20,20,20z"/>
</g>
<g>
	<path class="st0" d="M20,11c-0.6,0-1-0.4-1-1V1c0-0.6,0.4-1,1-1s1,0.4,1,1v9C21,10.6,20.6,11,20,11z"/>
</g>
<g>
	<path class="st0" d="M7,13H1c-0.6,0-1-0.4-1-1s0.4-1,1-1h6c0.6,0,1,0.4,1,1S7.6,13,7,13z"/>
</g>
<g>
	<path class="st0" d="M15,7H9C8.4,7,8,6.6,8,6s0.4-1,1-1h6c0.6,0,1,0.4,1,1S15.6,7,15,7z"/>
</g>
<g>
	<path class="st0" d="M23,15h-6c-0.6,0-1-0.4-1-1s0.4-1,1-1h6c0.6,0,1,0.4,1,1S23.6,15,23,15z"/>
</g>
</svg>
