<?xml version="1.0" encoding="utf-8"?>
<!-- Generator: Adobe Illustrator 21.0.0, SVG Export Plug-In . SVG Version: 6.00 Build 0)  -->
<svg version="1.1" id="Слой_1" xmlns="http://www.w3.org/2000/svg" xmlns:xlink="http://www.w3.org/1999/xlink" x="0px" y="0px"
	 viewBox="0 0 20 22" style="enable-background:new 0 0 20 22;" xml:space="preserve">
<style type="text/css">
	.st0{fill:none;}
</style>
<g>
	<path class="st0" d="M17,22H3c-1.7,0-3-1.3-3-3V8c0-0.3,0.1-0.6,0.4-0.8l9-7c0.4-0.3,0.9-0.3,1.2,0l9,7C19.9,7.4,20,7.7,20,8v11
		C20,20.7,18.7,22,17,22z M2,8.5V19c0,0.6,0.4,1,1,1h14c0.6,0,1-0.4,1-1V8.5l-8-6.2L2,8.5z"/>
</g>
<g>
	<path class="st0" d="M13,22c-0.6,0-1-0.4-1-1v-9H8v9c0,0.6-0.4,1-1,1s-1-0.4-1-1V11c0-0.6,0.4-1,1-1h6c0.6,0,1,0.4,1,1v10
		C14,21.6,13.6,22,13,22z"/>
</g>
</svg>
