<?xml version="1.0" encoding="utf-8"?>
<!-- Generator: Adobe Illustrator 21.0.0, SVG Export Plug-In . SVG Version: 6.00 Build 0)  -->
<svg version="1.1" id="Слой_1" xmlns:sketch="http://www.bohemiancoding.com/sketch/ns"
	 xmlns="http://www.w3.org/2000/svg" xmlns:xlink="http://www.w3.org/1999/xlink" x="0px" y="0px" viewBox="0 0 27 27"
	 style="enable-background:new 0 0 27 27;" xml:space="preserve">
<style type="text/css">
	.st0{fill:none;}
</style>
<title></title>
<desc></desc>
<g id="Page-1">
	<g id="icon-24-key">
		<path id="key" class="st0" d="M15.5,16.5L11,21H8v3H5v3H0v-5l10.5-10.5c-0.3-0.9-0.5-1.9-0.5-3C10,3.8,13.8,0,18.5,0
			S27,3.8,27,8.5S23.2,17,18.5,17C17.5,17,16.5,16.8,15.5,16.5L15.5,16.5L15.5,16.5z M11,12.5l-10,10V26h3v-3h3v-3h3.5l4-4
			C13,15.2,11.8,14,11,12.5L11,12.5L11,12.5z M26,8.5C26,4.4,22.6,1,18.5,1S11,4.4,11,8.5s3.4,7.5,7.5,7.5S26,12.6,26,8.5L26,8.5
			L26,8.5z M24,6c0-1.7-1.3-3-3-3s-3,1.3-3,3s1.3,3,3,3S24,7.7,24,6L24,6L24,6z M23,6c0-1.1-0.9-2-2-2s-2,0.9-2,2s0.9,2,2,2
			S23,7.1,23,6L23,6L23,6z"/>
	</g>
</g>
</svg>
