<?xml version="1.0" encoding="utf-8"?>
<!-- Generator: Adobe Illustrator 21.0.0, SVG Export Plug-In . SVG Version: 6.00 Build 0)  -->
<svg version="1.1" id="Слой_1" xmlns="http://www.w3.org/2000/svg" xmlns:xlink="http://www.w3.org/1999/xlink" x="0px" y="0px"
	 viewBox="0 0 20 24" style="enable-background:new 0 0 20 24;" xml:space="preserve">
<style type="text/css">
	.st0{fill:none;}
</style>
<g>
	<path class="st0" d="M10,24c-0.2,0-0.4-0.1-0.6-0.2C9.1,23.6,0,17.4,0,10C0,4.5,4.5,0,10,0c5.5,0,10,4.5,10,10
		c0,7.4-9.1,13.6-9.4,13.8C10.4,23.9,10.2,24,10,24z M10,2c-4.4,0-8,3.6-8,8c0,5.4,6.1,10.4,8,11.8c1.9-1.4,8-6.4,8-11.8
		C18,5.6,14.4,2,10,2z"/>
</g>
<g>
	<path class="st0" d="M10,14c-2.2,0-4-1.8-4-4s1.8-4,4-4c2.2,0,4,1.8,4,4S12.2,14,10,14z M10,8c-1.1,0-2,0.9-2,2s0.9,2,2,2
		c1.1,0,2-0.9,2-2S11.1,8,10,8z"/>
</g>
</svg>
