<?xml version="1.0" encoding="utf-8"?>
<!-- Generator: Adobe Illustrator 21.0.0, SVG Export Plug-In . SVG Version: 6.00 Build 0)  -->
<svg version="1.1" id="Слой_1" xmlns="http://www.w3.org/2000/svg" xmlns:xlink="http://www.w3.org/1999/xlink" x="0px" y="0px"
	 viewBox="0 0 28 28" style="enable-background:new 0 0 28 28;" xml:space="preserve">
<style type="text/css">
	.st0{fill:none;}
</style>
<g id="play">
</g>
<g id="stop">
</g>
<g id="pause">
</g>
<g id="replay">
</g>
<g id="next">
</g>
<g id="Layer_8">
</g>
<g id="search">
	<g>
		<g>
			<path class="st0" d="M12.5,25C5.6,25,0,19.4,0,12.5S5.6,0,12.5,0S25,5.6,25,12.5S19.4,25,12.5,25z M12.5,2C6.7,2,2,6.7,2,12.5
				C2,18.3,6.7,23,12.5,23C18.3,23,23,18.3,23,12.5C23,6.7,18.3,2,12.5,2z"/>
		</g>
		<g>
			<path class="st0" d="M27,28c-0.3,0-0.5-0.1-0.7-0.3l-6-6c-0.4-0.4-0.4-1,0-1.4s1-0.4,1.4,0l6,6c0.4,0.4,0.4,1,0,1.4
				C27.5,27.9,27.3,28,27,28z"/>
		</g>
	</g>
</g>
<g id="list">
</g>
<g id="love">
</g>
<g id="menu">
</g>
<g id="add">
</g>
<g id="headset">
</g>
<g id="random">
</g>
<g id="music">
</g>
<g id="setting">
</g>
<g id="Layer_17">
</g>
<g id="Layer_18">
</g>
<g id="Layer_19">
</g>
<g id="Layer_20">
</g>
<g id="Layer_21">
</g>
<g id="Layer_22">
</g>
<g id="Layer_23">
</g>
<g id="Layer_24">
</g>
<g id="Layer_25">
</g>
<g id="Layer_26">
</g>
</svg>
