<?xml version="1.0" encoding="utf-8"?>
<!-- Generator: Adobe Illustrator 21.0.0, SVG Export Plug-In . SVG Version: 6.00 Build 0)  -->
<svg version="1.1" id="Icons" xmlns="http://www.w3.org/2000/svg" xmlns:xlink="http://www.w3.org/1999/xlink" x="0px" y="0px"
	 viewBox="0 0 40.5 37" style="enable-background:new 0 0 40.5 37;" xml:space="preserve">
<style type="text/css">
	.st0{fill:none;}
</style>
<g>
	<path class="st0" d="M13,37c-3.5,0-6.7-1.4-9.2-3.8c-5.1-5.1-5.1-13.3,0-18.4L18.7,0l2.8,2.8L6.6,17.7c-3.5,3.5-3.5,9.2,0,12.7
		c1.7,1.7,4,2.6,6.4,2.6s4.7-0.9,6.4-2.6l15.5-15.5c1-1,1.6-2.4,1.6-3.9s-0.6-2.9-1.6-3.9c-2.1-2.1-5.6-2.1-7.8,0v0L12.3,21.9
		c-0.4,0.4-0.6,0.9-0.6,1.4s0.2,1,0.6,1.4c0.8,0.8,2.1,0.8,2.9,0L30,9.9l2.8,2.8L18,27.6c-2.3,2.3-6.2,2.3-8.5,0
		c-1.1-1.1-1.8-2.7-1.8-4.3s0.6-3.1,1.8-4.3L24.3,4.2l0,0c3.7-3.7,9.7-3.7,13.5,0c1.8,1.8,2.8,4.2,2.8,6.7s-1,4.9-2.8,6.7L22.2,33.2
		C19.7,35.7,16.5,37,13,37z"/>
</g>
</svg>
