<?xml version="1.0" encoding="utf-8"?>
<!-- Generator: Adobe Illustrator 21.0.0, SVG Export Plug-In . SVG Version: 6.00 Build 0)  -->
<svg version="1.1" id="Слой_1" xmlns="http://www.w3.org/2000/svg" xmlns:xlink="http://www.w3.org/1999/xlink" x="0px" y="0px"
	 viewBox="0 0 28 28" style="enable-background:new 0 0 28 28;" xml:space="preserve">
<style type="text/css">
	.st0{fill:none;}
</style>
<title></title>
<g id="trash">
	<g>
		<path class="st0" d="M23,28H5c-0.6,0-1-0.4-1-1V5c0-0.6,0.4-1,1-1h18c0.6,0,1,0.4,1,1v22C24,27.6,23.6,28,23,28z M6,26h16V6H6V26z
			"/>
	</g>
	<g>
		<path class="st0" d="M27,6H1C0.4,6,0,5.6,0,5s0.4-1,1-1h26c0.6,0,1,0.4,1,1S27.6,6,27,6z"/>
	</g>
	<g>
		<path class="st0" d="M17,2h-6c-0.6,0-1-0.4-1-1s0.4-1,1-1h6c0.6,0,1,0.4,1,1S17.6,2,17,2z"/>
	</g>
	<g>
		<path class="st0" d="M11,21c-0.6,0-1-0.4-1-1V10c0-0.6,0.4-1,1-1s1,0.4,1,1v10C12,20.6,11.6,21,11,21z"/>
	</g>
	<g>
		<path class="st0" d="M17,21c-0.6,0-1-0.4-1-1V10c0-0.6,0.4-1,1-1s1,0.4,1,1v10C18,20.6,17.6,21,17,21z"/>
	</g>
</g>
</svg>
