<?xml version="1.0" encoding="utf-8"?>
<!-- Generator: Adobe Illustrator 21.0.0, SVG Export Plug-In . SVG Version: 6.00 Build 0)  -->
<svg version="1.1" id="Слой_1" xmlns="http://www.w3.org/2000/svg" xmlns:xlink="http://www.w3.org/1999/xlink" x="0px" y="0px"
	 viewBox="0 0 24 16" style="enable-background:new 0 0 24 16;" xml:space="preserve">
<style type="text/css">
	.st0{fill:none;}
</style>
<g>
	<path class="st0" d="M23,14c-0.2,0-0.4-0.1-0.6-0.2l-7-5C15.2,8.6,15,8.3,15,8s0.2-0.6,0.4-0.8l7-5c0.3-0.2,0.7-0.2,1-0.1
		C23.8,2.3,24,2.6,24,3v10c0,0.4-0.2,0.7-0.5,0.9C23.3,14,23.2,14,23,14z M17.7,8l4.3,3.1V4.9L17.7,8z"/>
</g>
<g>
	<path class="st0" d="M14,16H3c-1.7,0-3-1.3-3-3V3c0-1.7,1.3-3,3-3h11c1.7,0,3,1.3,3,3v10C17,14.7,15.7,16,14,16z M3,2
		C2.4,2,2,2.4,2,3v10c0,0.6,0.4,1,1,1h11c0.6,0,1-0.4,1-1V3c0-0.6-0.4-1-1-1H3z"/>
</g>
</svg>
