<?xml version="1.0" encoding="utf-8"?>
<!-- Generator: Adobe Illustrator 21.0.0, SVG Export Plug-In . SVG Version: 6.00 Build 0)  -->
<svg version="1.1" id="Слой_1" xmlns="http://www.w3.org/2000/svg" xmlns:xlink="http://www.w3.org/1999/xlink" x="0px" y="0px"
	 viewBox="0 0 20 22" style="enable-background:new 0 0 20 22;" xml:space="preserve">
<style type="text/css">
	.st0{fill:none;}
</style>
<g>
	<path class="st0" d="M9,22c-0.1,0-0.3,0-0.4-0.1c-0.4-0.2-0.6-0.6-0.6-1L8.9,14H1c-0.4,0-0.7-0.2-0.9-0.6c-0.2-0.4-0.1-0.8,0.1-1.1
		l10-12C10.5,0,11-0.1,11.4,0.1c0.4,0.2,0.6,0.6,0.6,1L11.1,8H19c0.4,0,0.7,0.2,0.9,0.6c0.2,0.4,0.1,0.8-0.1,1.1l-10,12
		C9.6,21.9,9.3,22,9,22z M3.1,12H10c0.3,0,0.6,0.1,0.7,0.3c0.2,0.2,0.3,0.5,0.2,0.8l-0.6,4.6l6.4-7.7H10c-0.3,0-0.6-0.1-0.7-0.3
		C9.1,9.4,9,9.2,9,8.9l0.6-4.6L3.1,12z"/>
</g>
</svg>
