<?xml version="1.0" encoding="utf-8"?>
<!-- Generator: Adobe Illustrator 21.0.0, SVG Export Plug-In . SVG Version: 6.00 Build 0)  -->
<svg version="1.1" id="Слой_1" xmlns="http://www.w3.org/2000/svg" xmlns:xlink="http://www.w3.org/1999/xlink" x="0px" y="0px"
	 viewBox="0 0 30 26" style="enable-background:new 0 0 30 26;" xml:space="preserve">
<style type="text/css">
	.st0{fill:none;}
</style>
<title></title>
<g id="Layer_11">
	<path class="st0" d="M12,24C5.4,24,0,18.6,0,12S5.4,0,12,0s12,5.4,12,12S18.6,24,12,24z M12,2C6.5,2,2,6.5,2,12s4.5,10,10,10
		s10-4.5,10-10S17.5,2,12,2z"/>
	<path class="st0" d="M29,26c-0.2,0-0.4-0.1-0.6-0.2l-8-6c-0.4-0.3-0.5-1-0.2-1.4c0.3-0.4,1-0.5,1.4-0.2l0,0l8,6
		c0.4,0.3,0.5,1,0.2,1.4C29.6,25.9,29.3,26,29,26z"/>
	<rect x="8" y="11" class="st0" width="8" height="2"/>
	<rect x="11" y="8" class="st0" width="2" height="8"/>
</g>
</svg>
